<svg xmlns="http://www.w3.org/2000/svg" viewBox="0 0 400 300" width="406" height="306" class="illustration styles_illustrationTablet__1DWOa"><g id="_328_yoga_position_flatline" data-name="#328_yoga_position_flatline"><path d="M337,154.39H63a.5.5,0,0,1,0-1H337a.5.5,0,0,1,0,1Z" fill="#d1d3d4"></path><path d="M305.17,121.55a6.07,6.07,0,0,0-.7-3.28A22.83,22.83,0,0,1,303,116.2c-.62-1.33-.18-2.89-.33-4.36a5.38,5.38,0,0,0-1.53-3.24c-.76-.78-1.75-1.31-2.48-2.11-1.19-1.32-1.54-3.18-2.22-4.83A12,12,0,0,0,291.66,96c1.31,2.62-1.67,6-.32,8.56.43.82,1.24,1.42,1.55,2.3.76,2.11-1.76,4.4-.95,6.49.4,1,1.52,1.65,2,2.64.7,1.34.15,3,.21,4.47a8.26,8.26,0,0,0,2.85,5.39c.94.9,2,1.67,3,2.48,1.22,1,1.73,2,2.79.44A13.47,13.47,0,0,0,305.17,121.55Z" fill="#d1d3d4"></path><path d="M306.52,122.74a7.76,7.76,0,0,1,0-4.88c.74-1.72,2.59-2.93,2.81-4.79.14-1.22-.48-2.46-.23-3.66s1.22-2,2-2.91a12.16,12.16,0,0,0,3.15-7.44,18.58,18.58,0,0,1,3,5,6.37,6.37,0,0,1-.43,5.59,4.55,4.55,0,0,0-.76,1.24c-.37,1.18.65,2.29,1.17,3.42a3.92,3.92,0,0,1-.37,4c-1.06,1.33-3.12,1.85-3.64,3.46a8,8,0,0,0-.18,1.84,5.38,5.38,0,0,1-3.88,4.62c-1.26.31-1.23-.19-1.46-1.25C307.41,125.54,306.86,124.16,306.52,122.74Z" fill="#d1d3d4"></path><path d="M302.51,111.15c-.89-3.09-1.25-6.32-2.19-9.4a52.53,52.53,0,0,0-2.93-7l3.84,1.62a5.63,5.63,0,0,1,3.14,2.33c1,2.1-.8,4.78.26,6.85a15.34,15.34,0,0,0,1.52,1.91c1.13,1.59,1,3.77.33,5.62-.26.79-1.43,4.9-2.47,3.76-.41-.46-.45-2.16-.62-2.79C303.12,113.07,302.79,112.12,302.51,111.15Z" fill="#d1d3d4"></path><path d="M304.61,152.27c-.77-5.06-3.16-22.89-3.19-23.07l.66-.09c0,.18,2.42,18,3.19,23.06Z" fill="#d1d3d4"></path><path d="M305.51,157.05h-.66c0-6,2.54-29,4-30.54l.49.45C308.37,128,305.57,148.82,305.51,157.05Z" fill="#d1d3d4"></path><path d="M306.81,155.9l-.66,0c.57-13-2.18-40.14-2.2-40.42l.66-.06C304.64,115.66,307.39,142.9,306.81,155.9Z" fill="#d1d3d4"></path><path d="M298,140.08h14.29l-1,14.46a4.77,4.77,0,0,1-4.76,4.45H303.8a4.78,4.78,0,0,1-4.77-4.45Z" fill="#fff"></path><path d="M306.56,159.49H303.8a5.3,5.3,0,0,1-5.27-4.91l-1-14.47a.47.47,0,0,1,.14-.37.45.45,0,0,1,.36-.16h14.29a.49.49,0,0,1,.37.16.5.5,0,0,1,.13.37l-1,14.47A5.29,5.29,0,0,1,306.56,159.49Zm-8-18.91,1,13.93a4.3,4.3,0,0,0,4.27,4h2.76a4.28,4.28,0,0,0,4.26-4l1-13.93Z" fill="#d1d3d4"></path><polygon points="303.62 177.17 96.39 177.17 74.13 212.2 325.87 212.2 303.62 177.17" fill="#fff"></polygon><path d="M325.87,212.7H74.13a.48.48,0,0,1-.43-.26.49.49,0,0,1,0-.51L96,176.9a.5.5,0,0,1,.42-.23H303.62a.5.5,0,0,1,.42.23l22.25,35a.52.52,0,0,1,0,.51A.48.48,0,0,1,325.87,212.7ZM75,211.7H325l-21.62-34H96.66Z" fill="#d1d3d4"></path><path d="M205.87,101.47,187,113.11s-11.71-2.11-25.83,7.14S129.28,144.82,122,148.82s-15.06,2.51-17.2,7-2.66,21.55-1.67,25.41,4.58,2.27,5.36.29,2.12-6.45,2.42-7.51c.64-2.21,9-13.7,9-13.7l68.82-28.23L221,119.6" fill="#fff"></path><path d="M105.53,184.08h-.17c-.76-.05-2.13-.47-2.72-2.74-1-3.76-.57-21,1.71-25.75,1.31-2.73,4.5-3.41,8.2-4.2a32.12,32.12,0,0,0,9.21-3c3.58-2,9.7-6.7,16.8-12.17s15.16-11.72,22.28-16.38c13.32-8.72,24.37-7.49,26-7.24L205.61,101a.5.5,0,0,1,.52.86l-18.92,11.64a.54.54,0,0,1-.35.07c-.12,0-11.7-2-25.47,7-7.09,4.65-15.13,10.86-22.22,16.34s-13.28,10.25-16.93,12.26a33.09,33.09,0,0,1-9.48,3.11c-3.58.76-6.41,1.36-7.51,3.66-2,4.24-2.66,21.09-1.64,25.07.23.86.72,1.91,1.81,2a2.92,2.92,0,0,0,2.6-1.75c.74-1.9,2-6.2,2.41-7.47.65-2.26,8.68-13.38,9-13.86a.51.51,0,0,1,.21-.17l68.82-28.23,32.33-12.47a.52.52,0,0,1,.65.29.5.5,0,0,1-.29.65l-32.32,12.46L120.18,160.7c-2.36,3.27-8.29,11.72-8.79,13.44-.37,1.28-1.68,5.62-2.43,7.55A3.94,3.94,0,0,1,105.53,184.08Z" fill="#231f20"></path><path d="M215.61,143.85V128.62s21.69-11.65,32.14-10c0,0-1.21,21.65-2.88,30.69Z" fill="#fff"></path><path d="M244.87,149.82h-.09l-29.26-5.47a.5.5,0,0,1-.41-.49V128.62a.52.52,0,0,1,.27-.44c.89-.47,22-11.7,32.44-10a.49.49,0,0,1,.42.52c0,.22-1.22,21.78-2.87,30.75a.51.51,0,0,1-.21.32A.52.52,0,0,1,244.87,149.82Zm-28.76-6.39,28.36,5.31c1.46-8.42,2.57-26.55,2.75-29.67-9.69-1.16-28.65,8.57-31.11,9.86Z" fill="#231f20"></path><path d="M158.15,196.35c3.2-5.28-.86-9.56-6.59-7.83-2.06.62-5-.25-7.09-.69-4.94-1.06-10.11-2.68-14.91-1.09-3.27,1.09-5.88,3.54-8.82,5.35a25,25,0,0,1-12.57,3.7,17.68,17.68,0,0,0,15.16,6.86c4.27-.32,8.34-2.21,12.63-2.3,4.9-.1,9.76,2.16,14.58,1.26A11.47,11.47,0,0,0,158.15,196.35Z" fill="#fff"></path><path d="M122.12,203.2a18.3,18.3,0,0,1-14.34-7.11.47.47,0,0,1,0-.52.49.49,0,0,1,.44-.28,24.35,24.35,0,0,0,12.31-3.62c.93-.58,1.85-1.23,2.73-1.86a23.79,23.79,0,0,1,6.2-3.54c4.25-1.41,8.74-.39,13.08.6l2.09.47,1,.22c1.88.43,4.22,1,5.84.48,3-.91,5.85-.27,7.36,1.67s1.33,4.39-.19,6.9h0a12,12,0,0,1-8,5.5c-2.84.52-5.7,0-8.47-.53a30.24,30.24,0,0,0-6.19-.73,30,30,0,0,0-6.63,1.15,34.92,34.92,0,0,1-6,1.15C123,203.18,122.54,203.2,122.12,203.2Zm-12.93-6.95a17.23,17.23,0,0,0,14.1,5.9A34.06,34.06,0,0,0,129.1,201a30.79,30.79,0,0,1,6.85-1.18,31.08,31.08,0,0,1,6.39.75c2.8.52,5.45,1,8.11.52a10.94,10.94,0,0,0,7.27-5h0c1.32-2.17,1.41-4.28.26-5.77s-3.65-2.11-6.28-1.32c-1.87.56-4.36,0-6.35-.47l-1-.21-2.11-.47c-4.2-1-8.55-1.95-12.54-.63a23,23,0,0,0-5.93,3.4c-.9.64-1.83,1.31-2.79,1.9A25.41,25.41,0,0,1,109.19,196.25Z" fill="#231f20"></path><path d="M150.88,191.87a7.42,7.42,0,0,0,3.57,3.38,5.75,5.75,0,0,0,3.23.68,4.4,4.4,0,0,0,3.19-2.3,2.5,2.5,0,0,0,.32-1.74,2.81,2.81,0,0,0-.84-1.25C157.79,188.12,147.47,184.53,150.88,191.87Z" fill="#231f20"></path><path d="M157.13,196.47a6.69,6.69,0,0,1-2.9-.77,8,8,0,0,1-3.8-3.61h0c-1-2.23-1-3.76.16-4.57,2.24-1.58,8.23.91,10.11,2.76a3.33,3.33,0,0,1,1,1.48,2.91,2.91,0,0,1-.36,2.11,4.9,4.9,0,0,1-3.56,2.55A4.21,4.21,0,0,1,157.13,196.47Zm-5.79-4.81a7,7,0,0,0,3.33,3.14,5.16,5.16,0,0,0,3,.63,3.88,3.88,0,0,0,2.81-2,2.08,2.08,0,0,0,.28-1.38,2.62,2.62,0,0,0-.71-1c-1.78-1.75-7.19-3.81-8.83-2.65-.86.6-.38,2.14.17,3.32Z" fill="#231f20"></path><path d="M187,186.34c.73,1.41.78,3.09-.44,5.41a13.12,13.12,0,0,1-4.45,4.59,22.46,22.46,0,0,1-23.63.41c-7.21-4.44-11.78-15.28-5.45-22.38a11,11,0,0,1,8.57-3.63,3.31,3.31,0,0,1,2.15-2.9c3-1.28,5.27-.26,7.37,1.93,3.46,3.6,6.54,7.56,10.15,11C183.37,182.79,185.91,184.27,187,186.34Z" fill="#fff"></path><path d="M169.94,200.44a22.42,22.42,0,0,1-11.74-3.27,18.89,18.89,0,0,1-8.54-12.77,12.36,12.36,0,0,1,3-10.36,11.47,11.47,0,0,1,8.47-3.81,4,4,0,0,1,2.43-2.85c3.8-1.61,6.34.4,7.92,2.05,1.43,1.48,2.81,3,4.15,4.57,1.9,2.16,3.87,4.4,6,6.42.68.65,1.42,1.25,2.14,1.84a13.52,13.52,0,0,1,3.69,3.85c.88,1.71.74,3.63-.45,5.87a13.42,13.42,0,0,1-4.61,4.78A22.51,22.51,0,0,1,169.94,200.44Zm-8.8-29.21a10.51,10.51,0,0,0-7.76,3.47,11.49,11.49,0,0,0-2.73,9.55,17.86,17.86,0,0,0,8.07,12.07,22.06,22.06,0,0,0,23.09-.4,12.5,12.5,0,0,0,4.29-4.41c1-1.95,1.17-3.53.44-4.94h0a12.94,12.94,0,0,0-3.43-3.54c-.73-.59-1.49-1.21-2.2-1.89-2.15-2-4.13-4.3-6-6.48-1.33-1.51-2.71-3.07-4.12-4.54-2.25-2.35-4.28-2.89-6.81-1.82a2.85,2.85,0,0,0-1.85,2.43.49.49,0,0,1-.15.37.55.55,0,0,1-.37.14Z" fill="#231f20"></path><path d="M171.63,172.91s6.32-3.29,7.46-2.35,0,3.54,0,3.54" fill="#fff"></path><path d="M179.14,174.6a.43.43,0,0,1-.19,0,.49.49,0,0,1-.27-.65c.25-.59.79-2.39.1-3-.47-.39-3.71.74-6.92,2.41a.5.5,0,0,1-.46-.89c2-1,6.75-3.33,8-2.3s.32,3.82.19,4.12A.48.48,0,0,1,179.14,174.6Z" fill="#231f20"></path><path d="M163.72,172.93c2.3-2.27,6.51-1.1,9.31-.79q5.88.66,11.74,1.59c2.47.4,1.85,6.85,1,7.91,4.52.08,15.5-1.86,18.09,3a4.43,4.43,0,0,1,.17,3.19c-1.83,7.17-8.22,6.21-13.72,5.84-4.17-.28-8.35-.42-12.52-.63,0,0,.47-4.26-4.34-7.31S169.78,177.57,163.72,172.93Z" fill="#fff"></path><path d="M195.1,194.44c-1.26,0-2.55-.09-3.79-.19l-1-.07c-2.78-.19-5.62-.31-8.35-.44l-4.17-.19a.48.48,0,0,1-.35-.18.51.51,0,0,1-.12-.38c0-.16.36-4-4.1-6.83-2.45-1.55-3.43-3.61-4.47-5.78a17,17,0,0,0-5.29-7,.48.48,0,0,1-.19-.37.49.49,0,0,1,.14-.38c2.09-2.07,5.48-1.56,8.21-1.15.53.08,1,.16,1.5.21,3.91.44,7.87,1,11.77,1.6a2.26,2.26,0,0,1,1.74,1.65,11.14,11.14,0,0,1,0,6.25c.77,0,1.67-.07,2.67-.13,5.43-.32,12.86-.75,15.07,3.4a5,5,0,0,1,.22,3.56C203.11,193.43,199.23,194.44,195.1,194.44Zm-16.81-1.87,3.67.17c2.75.13,5.58.25,8.37.44l1,.08c5.18.38,10.54.77,12.16-5.54a4.07,4.07,0,0,0-.14-2.84c-1.9-3.58-9.25-3.15-14.13-2.87-1.38.08-2.57.14-3.52.13a.48.48,0,0,1-.44-.29.49.49,0,0,1,.06-.52c.47-.58,1-4.12.28-6.08q-.35-.93-1-1c-3.89-.62-7.83-1.16-11.72-1.59-.48-.06-1-.13-1.54-.22-2.31-.35-5.14-.77-6.92.5a18.35,18.35,0,0,1,5.1,7c1,2.14,1.9,4,4.1,5.38C177.77,187.89,178.26,191.28,178.29,192.57Z" fill="#231f20"></path><path d="M181.83,173.52s1.55,3.24-1.76,4.53" fill="#fff"></path><path d="M180.07,178.55a.51.51,0,0,1-.47-.31.51.51,0,0,1,.28-.65,2.7,2.7,0,0,0,1.65-1.46,3.44,3.44,0,0,0-.15-2.39.5.5,0,0,1,.23-.67.51.51,0,0,1,.67.23,4.45,4.45,0,0,1,.18,3.2,3.62,3.62,0,0,1-2.21,2Z" fill="#231f20"></path><path d="M185.76,181.64s-.5,3.29-3,4.61c0,0,4,.27,6.25-4.67Z" fill="#231f20"></path><path d="M182.93,186.75h-.16a.52.52,0,0,1-.46-.39.52.52,0,0,1,.26-.55c2.21-1.19,2.69-4.21,2.7-4.24a.5.5,0,0,1,.48-.43l3.29-.06a.5.5,0,0,1,.42.22.49.49,0,0,1,0,.48C187.35,186.48,183.73,186.75,182.93,186.75Zm3.24-4.62a8.12,8.12,0,0,1-1.6,3.31,6.93,6.93,0,0,0,3.66-3.35Z" fill="#231f20"></path><ellipse cx="169.59" cy="174.05" rx="0.55" ry="1.41" transform="translate(-31.2 310.92) rotate(-80.02)" fill="#231f20"></ellipse><path d="M172.8,181.13A5.52,5.52,0,0,0,170,182a8,8,0,0,0-1.93,1.24,2.64,2.64,0,0,0-.87,2.05,2.4,2.4,0,0,0,1.06,1.67,4.45,4.45,0,0,0,1.9.69,8.45,8.45,0,0,0,7.88-3.1l-.26.19" fill="#fff"></path><path d="M171.38,188.2a8.17,8.17,0,0,1-1.31-.1,5.06,5.06,0,0,1-2.11-.78,2.87,2.87,0,0,1-1.26-2,3,3,0,0,1,1-2.46,8.08,8.08,0,0,1,2.06-1.32,5.67,5.67,0,0,1,3.08-.87.5.5,0,1,1-.09,1,5,5,0,0,0-2.54.77,7.33,7.33,0,0,0-1.81,1.15,2.1,2.1,0,0,0-.72,1.64,1.94,1.94,0,0,0,.85,1.31,4.12,4.12,0,0,0,1.69.61,8,8,0,0,0,7.05-2.5.5.5,0,0,1,.2-.32l.25-.19a.5.5,0,0,1,.7.7A9.09,9.09,0,0,1,171.38,188.2Z" fill="#231f20"></path><path d="M194.21,197.29s-4.8-19.83,1.71-28.87c5.5-7.66,8.33-7.39,12.14-13.1s4.53-15.59,4.53-15.59l34.31,2.13s-6.11,39-14.48,47.66S205.28,204,194.21,197.29Z" fill="#ffcc00"></path><path d="M300.52,198.73c2,.15,6.63.28,8-1.69,2.59-3.78-9.49-5.22-11.64-5.68l3.26-.21c-1.7-2.38-4.94-3.12-7.85-3s-6.74.07-6.74.07-49.91-5.66-63.77-8.17c0,0-.29-1.37-.36-2.08a9.8,9.8,0,0,0-5.81-8,7.47,7.47,0,0,0-6.65.18c-2.09,1.23-3.23,3.56-4.08,5.83-1.8,4.83-2.78,10.22-1.2,15.12,2.86,8.81,10.3,8.41,17.87,8.41C236.52,199.59,290.76,197.81,300.52,198.73Z" fill="#fff"></path><path d="M219.66,200.09c-6.85,0-13.74-.34-16.47-8.76-1.41-4.34-1-9.54,1.2-15.44.8-2.13,2-4.74,4.3-6.09a7.91,7.91,0,0,1,7.1-.21A10.36,10.36,0,0,1,221.9,178c0,.46.2,1.24.29,1.69,14.13,2.5,62.9,8.05,63.4,8.11,0,0,1,0,2.34,0s2.91,0,4.31-.1c1.74-.1,6,0,8.29,3.16a.5.5,0,0,1,0,.5.45.45,0,0,1-.1.14c4.27.83,7.95,1.91,8.74,3.77a2.08,2.08,0,0,1-.3,2c-1.36,2-5.34,2.13-8.43,1.91h0c-6.32-.6-31.9,0-52.46.4-11.4.25-21.24.46-26.48.46h-1.87Zm-7.34-30.22a6.17,6.17,0,0,0-3.13.79c-2,1.18-3.08,3.48-3.86,5.58-2.13,5.69-2.53,10.66-1.19,14.79,2.62,8.09,9.33,8.09,16.44,8.06h.95c5.23,0,15.07-.21,26.46-.46,20.57-.44,46.18-1,52.57-.4,3.94.29,6.68-.25,7.52-1.48a1.06,1.06,0,0,0,.21-1.09c-.84-2-7.67-3.14-10.24-3.58-.56-.1-1-.17-1.29-.23a.51.51,0,0,1-.39-.53.48.48,0,0,1,.46-.46l2.26-.15c-2.06-2-5.37-2.09-6.79-2-2.91.16-6.74.07-6.78.07-.54-.06-50.13-5.69-63.84-8.18a.5.5,0,0,1-.4-.39,19.61,19.61,0,0,1-.37-2.13,9.34,9.34,0,0,0-5.51-7.56A7.87,7.87,0,0,0,212.32,169.87Z" fill="#231f20"></path><path d="M221.77,180.6h-.08l-9.26-1.34a.5.5,0,0,1-.42-.56.51.51,0,0,1,.57-.43l9.26,1.34a.5.5,0,0,1-.07,1Z" fill="#231f20"></path><path d="M247.75,118.63S247.28,99.29,235,90.09c-14-10.43-53.4,17.76-63.33,23.79l11.17,25.85,32.81-14.12v3Z" fill="#231f20"></path><path d="M182.8,140.23a.51.51,0,0,1-.46-.3l-11.17-25.85a.51.51,0,0,1,.2-.63c1.22-.74,2.92-1.84,4.9-3.12,15.08-9.73,46.48-30,59-20.64s13,28.74,13,28.93a.5.5,0,0,1-.36.49l-32.13,10a.49.49,0,0,1-.44-.07.52.52,0,0,1-.21-.41v-2.25L183,140.19A.45.45,0,0,1,182.8,140.23Zm-10.54-26.15,10.8,25,32.36-13.92a.52.52,0,0,1,.47,0,.51.51,0,0,1,.22.42V128l31.12-9.68c-.15-2.72-1.53-19.53-12.57-27.78-12-8.94-44.12,11.82-57.85,20.68C175,112.33,173.45,113.34,172.26,114.08Z" fill="#231f20"></path></g></svg>