<svg xmlns="http://www.w3.org/2000/svg" viewBox="0 0 400 300" width="406" height="306" class="illustration styles_illustrationTablet__1DWOa"><g id="_75_job_interview" data-name="#75_job_interview"><path d="M85.26,206.43H70.75a.51.51,0,0,1-.5-.45A18.45,18.45,0,0,1,91.61,186.1a10.8,10.8,0,0,1,14.65-12.66,50.86,50.86,0,0,1,6.83-25.78c3.6-6.22,10.08-12.45,17.47-11.3,4.17.65,7.65,3.58,10.45,5.93a.49.49,0,0,1,.06.7.51.51,0,0,1-.71.06c-2.7-2.27-6.06-5.09-10-5.7-6.89-1.08-13,4.88-16.45,10.81a49.81,49.81,0,0,0-6.69,26.06.5.5,0,0,1-.73.45,9.81,9.81,0,0,0-13.75,11.91.51.51,0,0,1-.1.5.5.5,0,0,1-.48.15,17.43,17.43,0,0,0-21,18.2H85.26a.5.5,0,0,1,0,1Z" fill="#d1d3d4"></path><path d="M122.87,133.44a.46.46,0,0,1-.37-.17,35.34,35.34,0,0,0-19.14-11.12,23.24,23.24,0,0,0-7.71-.4.5.5,0,0,1-.13-1,24.68,24.68,0,0,1,8,.42,36.3,36.3,0,0,1,19.69,11.44.51.51,0,0,1,0,.71A.5.5,0,0,1,122.87,133.44Z" fill="#d1d3d4"></path><path d="M99.35,131.36a22.71,22.71,0,0,1-4.2-.41c-5-1-9.47-3.36-13.82-5.67a1.71,1.71,0,0,1-.79-.7c-.31-.63,0-1.35.83-2,3.75-2.87,8.78-6.28,14.49-7.25,5-.85,11.5.47,14.88,5.33a.5.5,0,0,1-.13.7.49.49,0,0,1-.69-.13c-3.13-4.5-9.23-5.71-13.9-4.92-5.45.93-10.16,4.09-14,7.06-.38.29-.6.61-.53.75s.23.19.36.26c4.28,2.27,8.71,4.63,13.54,5.56,5.32,1,10.3,0,13.65-2.77a.5.5,0,0,1,.64.76A15.82,15.82,0,0,1,99.35,131.36Z" fill="#d1d3d4"></path><polygon points="315.2 260.38 67.91 260.38 94.86 208.53 288.25 208.53 315.2 260.38" fill="#fff"></polygon><path d="M315.2,260.88H67.91a.5.5,0,0,1-.43-.24.5.5,0,0,1,0-.49l27-51.86a.52.52,0,0,1,.45-.27H288.25a.49.49,0,0,1,.44.27l26.95,51.86a.49.49,0,0,1-.44.73Zm-246.47-1H314.38L288,209H95.16Z" fill="#d1d3d4"></path><path d="M95.4,260.88a.65.65,0,0,1-.19,0,.49.49,0,0,1-.27-.65l21-51.85a.5.5,0,1,1,.93.37l-21,51.85A.49.49,0,0,1,95.4,260.88Z" fill="#d1d3d4"></path><path d="M122.87,260.88l-.14,0a.51.51,0,0,1-.34-.62l15-51.85A.51.51,0,0,1,138,208a.51.51,0,0,1,.34.62l-15,51.86A.5.5,0,0,1,122.87,260.88Z" fill="#d1d3d4"></path><path d="M150.34,260.88h-.08a.51.51,0,0,1-.41-.58l9-51.85a.5.5,0,1,1,1,.17l-9,51.85A.51.51,0,0,1,150.34,260.88Z" fill="#d1d3d4"></path><path d="M177.82,260.88h0a.5.5,0,0,1-.47-.53l3-51.85a.5.5,0,0,1,.53-.47.49.49,0,0,1,.47.52l-3,51.86A.51.51,0,0,1,177.82,260.88Z" fill="#d1d3d4"></path><path d="M205.29,260.88a.51.51,0,0,1-.5-.47l-3-51.86a.49.49,0,0,1,.47-.52h0a.5.5,0,0,1,.49.48l3,51.85a.52.52,0,0,1-.47.53Z" fill="#d1d3d4"></path><path d="M232.76,260.88a.49.49,0,0,1-.49-.42l-9-51.85a.5.5,0,1,1,1-.17l9,51.85a.5.5,0,0,1-.4.58Z" fill="#d1d3d4"></path><path d="M260.23,260.88a.52.52,0,0,1-.48-.36l-15-51.86a.5.5,0,0,1,.34-.62.51.51,0,0,1,.62.35l15,51.85a.5.5,0,0,1-.34.62Z" fill="#d1d3d4"></path><path d="M287.25,259.75a.51.51,0,0,1-.46-.31L266,208a.5.5,0,0,1,.93-.37l20.78,51.41a.5.5,0,0,1-.28.65A.41.41,0,0,1,287.25,259.75Z" fill="#d1d3d4"></path><path d="M211.76,69.88c-.09-3.12-.42-6.37-2.1-9-2.5-3.93-7.32-5.56-11.77-6.92-5-1.55-10.54-3.09-15.51-1.29a17,17,0,0,0-4.47,2.57,17.36,17.36,0,0,0-6,7.48,10,10,0,0,0,.9,9.27c3.86,5.35,13.09,4.89,16.19,10.71,1,1.91,1.19,4.25,2.5,6a8.65,8.65,0,0,0,3.29,2.43c2.63,1.25,5.73,2,8.46.94C212,88.8,212,77.43,211.76,69.88Z" fill="#231f20"></path><path d="M200.45,93a13.85,13.85,0,0,1-5.84-1.47A9.27,9.27,0,0,1,191.13,89a11.25,11.25,0,0,1-1.58-3.54,15,15,0,0,0-1-2.51c-1.54-2.88-4.68-4.14-8-5.47-3.07-1.23-6.24-2.51-8.16-5.18a10.54,10.54,0,0,1-1-9.73,17.82,17.82,0,0,1,6.14-7.71,17.54,17.54,0,0,1,4.6-2.63c5.33-1.94,11.4-.09,15.83,1.27,4.91,1.5,9.53,3.18,12,7.13,1.77,2.78,2.09,6.25,2.18,9.27.18,6.7.51,19.18-8.81,22.63A8.54,8.54,0,0,1,200.45,93ZM187.3,52.34a13.73,13.73,0,0,0-4.75.79,16.94,16.94,0,0,0-4.34,2.49,16.77,16.77,0,0,0-5.8,7.27,9.48,9.48,0,0,0,.84,8.8C175,74.13,178,75.34,181,76.52c3.34,1.34,6.79,2.73,8.5,5.93a15.2,15.2,0,0,1,1,2.69,10.19,10.19,0,0,0,1.43,3.23,7.9,7.9,0,0,0,3.1,2.28c2.11,1,5.22,2,8.08.92,8.65-3.21,8.32-15.22,8.15-21.67h0c-.08-2.89-.38-6.19-2-8.76-2.33-3.67-6.77-5.27-11.5-6.72A36.72,36.72,0,0,0,187.3,52.34Z" fill="#231f20"></path><path d="M166.25,195.12l-1.09,4s-47.3-4.35-51.53,3.14,17.47,32,61.11,33.67S276.65,221.31,280,206.67s-55.46-9.3-55.46-9.3l-1.13-5.06S173.86,196,166.25,195.12Z" fill="#231f20"></path><path d="M181.2,236.57q-3.28,0-6.48-.12c-15.12-.59-29.2-4-40.73-9.93-9.23-4.73-16.41-10.83-19.7-16.73-1.76-3.14-2.14-5.89-1.09-7.76,4.16-7.38,46.59-3.86,51.59-3.42l1-3.62a.5.5,0,0,1,.54-.36c7.47.83,56.6-2.78,57.09-2.82a.49.49,0,0,1,.53.39l1,4.64c5-.43,46.56-3.71,54.39,5.27a5,5,0,0,1,1.17,4.67C277.22,221.06,224.23,236.57,181.2,236.57ZM138.46,198.4c-11.71,0-22.6.93-24.39,4.12-.88,1.55-.49,4,1.09,6.79,5.46,9.79,25.85,24.83,59.6,26.14,42.71,1.66,101.48-14.55,104.79-28.9a4,4,0,0,0-.95-3.78c-7.83-9-53.53-4.94-54-4.9a.49.49,0,0,1-.53-.39l-1-4.65c-5.1.38-48,3.48-56.43,2.83l-1,3.61a.5.5,0,0,1-.52.37C159.09,199.08,148.48,198.4,138.46,198.4Z" fill="#231f20"></path><path d="M113.63,202.28c1.21-2.14,10.7-4.68,26.75,0s67.54,27.83,71,29.44S229,236,228,240.17s-31.49-3.52-34.07-4.78-33.62,4.32-60.81-5.92C108.92,220.35,110.84,207.2,113.63,202.28Z" fill="#fff"></path><path d="M224,241.91c-8.77,0-28-5-30.27-6.08-.55-.26-3.47-.12-6.85,0-10.91.56-33.63,1.7-53.92-5.94-11.24-4.23-18.15-9.74-20.56-16.39A13.94,13.94,0,0,1,113.2,202c1.34-2.37,11-5,27.32-.23s67.88,28,71,29.47a38.79,38.79,0,0,0,4.49,1.5c5.91,1.76,13.28,4,12.49,7.51a1.66,1.66,0,0,1-1,1.11A8.8,8.8,0,0,1,224,241.91Zm-32-7.22a5.51,5.51,0,0,1,2.14.25c2.55,1.24,28.48,7.69,32.91,5.55.27-.12.42-.27.45-.43.59-2.64-7.17-4.95-11.8-6.33a40,40,0,0,1-4.63-1.55c-3.14-1.49-54.66-24.7-70.88-29.42-15.86-4.62-25.15-2-26.17-.24a12.9,12.9,0,0,0-.71,10.69c2.27,6.27,9.18,11.73,20,15.79,20.1,7.57,42.67,6.43,53.52,5.89C189.19,234.77,190.87,234.69,192.05,234.69Zm-78.42-32.41h0Z" fill="#231f20"></path><path d="M147.7,133.46l-8.91,33.6L124.4,150.13s-2.48-4.13-4.06-4.72c-1.88-.7-7.36-1.95-10-4.07s-6.28-1.81-6.52-.16c-.31,2.2,5.3,4.76,6.71,5.86-1.65.7-4.07.42-5.81.11a3.65,3.65,0,0,1-1.83-.74c-1.47-1.33.71-3.4.32-4.94A2.49,2.49,0,0,0,99.63,140c-1.24.83-1.44,2.53-2,3.9-1.24,2.94-4.4,4.54-5.65,7.45-1.4,3.27,1.25,5.8,4.63,5.59,5.53-.36,10.93-1.91,16.22-3.51,0,0,15.15,43.21,37.13,48.86,2.46.63,10.09-26.89,13-45.25,11.55-8.07,11.32-13,11.74-17.39,1.26-13.21-9.69-19.12-9.69-19.12S151.78,118.07,147.7,133.46Z" fill="#fff"></path><path d="M150,202.78a1.18,1.18,0,0,1-.21,0c-9.25-2.38-18.37-11.39-27.11-26.78A157.76,157.76,0,0,1,112.5,154c-5.34,1.6-10.58,3.05-15.87,3.38a5.41,5.41,0,0,1-4.82-2,4.25,4.25,0,0,1-.31-4.24,13.09,13.09,0,0,1,2.91-3.86,12,12,0,0,0,2.74-3.6c.15-.35.27-.73.4-1.11a5.19,5.19,0,0,1,1.81-3,2.74,2.74,0,0,1,2.54-.23,3.06,3.06,0,0,1,1.59,1.36,2.06,2.06,0,0,1,1.23-1.08,6.46,6.46,0,0,1,6,1.34c1.89,1.54,5.5,2.64,7.88,3.37.8.24,1.47.44,1.93.61,1.69.64,4,4.49,4.3,4.93L138.55,166l8.67-32.67c2.16-8.16,6.89-11.35,10.47-12.59A15.67,15.67,0,0,1,165,120a.44.44,0,0,1,.15,0c.11.06,11.22,6.22,9.94,19.61l-.06.75c-.38,4.32-.8,9.2-11.7,16.88-2.7,17.07-9.73,43.27-12.78,45.28A1,1,0,0,1,150,202.78Zm-37.21-49.87a.51.51,0,0,1,.48.34c.15.43,15.3,43,36.77,48.53,2.09-.66,9.37-25.82,12.35-44.84a.52.52,0,0,1,.21-.33c10.69-7.48,11.1-12.15,11.45-16.26l.07-.77c1.16-12.17-8.45-18.07-9.36-18.59-1.18-.2-12.81-1.7-16.6,12.6l-8.9,33.59a.51.51,0,0,1-.38.36.48.48,0,0,1-.49-.16L124,150.45c-1-1.6-2.81-4.18-3.84-4.57-.45-.17-1.1-.36-1.87-.6-2.46-.75-6.18-1.88-8.22-3.55a5.49,5.49,0,0,0-5-1.18c-.3.12-.66.33-.71.7-.19,1.33,2.94,3.19,4.8,4.31a19.64,19.64,0,0,1,1.72,1.09.49.49,0,0,1-.11.85c-1.38.58-3.37.63-6.09.14a4,4,0,0,1-2.08-.86c-1.12-1-.61-2.33-.21-3.4a3.35,3.35,0,0,0,.38-1.78,2,2,0,0,0-1.24-1.33,1.79,1.79,0,0,0-1.63.13,4.41,4.41,0,0,0-1.41,2.48c-.14.41-.27.81-.43,1.19A13,13,0,0,1,95.13,148a12,12,0,0,0-2.71,3.55,3.26,3.26,0,0,0,.21,3.27,4.44,4.44,0,0,0,3.93,1.62c5.35-.34,10.46-1.78,16.11-3.49Zm-9.08-10.37a9.31,9.31,0,0,1-.39,1.2c-.42,1.08-.64,1.78-.06,2.3a3.27,3.27,0,0,0,1.58.62,13.74,13.74,0,0,0,4.54.2c-.22-.14-.47-.29-.74-.44C106.88,145.36,104.61,144,103.73,142.54Zm44-9.08h0Z" fill="#231f20"></path><path d="M241.37,133.46l8.91,33.6,14.4-16.93s2.47-4.13,4.05-4.72c1.88-.7,7.36-1.95,9.95-4.07s6.29-1.81,6.52-.16c.32,2.2-5.29,4.76-6.71,5.86,1.65.7,4.08.42,5.81.11a3.58,3.58,0,0,0,1.83-.74c1.47-1.33-.71-3.4-.32-4.94a2.49,2.49,0,0,1,3.63-1.49c1.25.83,1.44,2.53,2,3.9,1.25,2.94,4.41,4.54,5.65,7.45,1.4,3.27-1.25,5.8-4.63,5.59-5.52-.36-10.93-1.91-16.22-3.51,0,0-15.14,43.21-37.12,48.86-2.47.63-10.1-26.89-13-45.25-11.54-8.07-11.31-13-11.73-17.39-1.26-13.21,9.68-19.12,9.68-19.12S237.29,118.07,241.37,133.46Z" fill="#fff"></path><path d="M239.05,202.78a1.06,1.06,0,0,1-.57-.19c-3-2-10.08-28.21-12.77-45.28-10.91-7.68-11.33-12.57-11.7-16.88l-.07-.75c-1.27-13.39,9.83-19.55,9.95-19.61a.34.34,0,0,1,.14,0c.14,0,13.68-2.34,17.83,13.31L250.52,166l13.78-16.2c.21-.37,2.56-4.22,4.25-4.86.47-.17,1.14-.37,1.93-.61,2.39-.73,6-1.83,7.88-3.37a6.47,6.47,0,0,1,6-1.34,2.07,2.07,0,0,1,1.22,1.08,3.14,3.14,0,0,1,1.59-1.36,2.76,2.76,0,0,1,2.55.23,5.21,5.21,0,0,1,1.81,3c.12.38.25.76.4,1.11a12,12,0,0,0,2.73,3.6,12.92,12.92,0,0,1,2.91,3.86,4.22,4.22,0,0,1-.3,4.24,5.42,5.42,0,0,1-4.82,2c-5.3-.33-10.54-1.78-15.88-3.38A157.22,157.22,0,0,1,266.38,176c-8.74,15.39-17.87,24.4-27.12,26.78A1.18,1.18,0,0,1,239.05,202.78ZM224.29,121c-.9.52-10.51,6.42-9.35,18.59l.06.77c.36,4.11.76,8.78,11.46,16.26a.5.5,0,0,1,.2.33c3,19,10.26,44.18,12.42,44.84,21.4-5.51,36.56-48.1,36.71-48.53a.51.51,0,0,1,.62-.32c5.64,1.71,10.75,3.15,16.1,3.49a4.42,4.42,0,0,0,3.94-1.62,3.26,3.26,0,0,0,.2-3.27,11.87,11.87,0,0,0-2.71-3.55,13,13,0,0,1-2.94-3.91c-.16-.38-.29-.78-.42-1.19a4.47,4.47,0,0,0-1.41-2.48,1.81,1.81,0,0,0-1.64-.13,2,2,0,0,0-1.23,1.33,3.33,3.33,0,0,0,.37,1.78c.41,1.07.91,2.39-.2,3.4a4.07,4.07,0,0,1-2.08.86c-2.73.49-4.72.44-6.09-.14a.48.48,0,0,1-.3-.39.48.48,0,0,1,.18-.46c.38-.29,1-.66,1.72-1.09,1.87-1.12,5-3,4.81-4.31,0-.37-.42-.58-.72-.7a5.53,5.53,0,0,0-5,1.18c-2,1.67-5.77,2.8-8.23,3.55-.77.24-1.42.43-1.86.6-1,.39-2.88,3-3.8,4.5l-14.45,17a.48.48,0,0,1-.49.16.5.5,0,0,1-.37-.36l-8.91-33.59C237.1,119.3,225.48,120.8,224.29,121Zm55.38,25.87a13.73,13.73,0,0,0,4.54-.2,3.35,3.35,0,0,0,1.59-.62c.58-.52.35-1.22-.06-2.3a9.38,9.38,0,0,1-.4-1.2c-.88,1.46-3.15,2.82-4.93,3.88Z" fill="#231f20"></path><path d="M176.9,117.6s-11.46.66-14,2.35c0,0,6.2,22-1.4,38,0,0,4.47,27.87,4.75,37.16,0,0,31.18,9.86,57.19-2.81.48,4.48-.44-28.79,2.73-35.29,0,0-1.79-28.25,1.87-37.45C228,119.57,190.9,115.26,176.9,117.6Z" fill="#ffcc00"></path><path d="M186,105.83l-.23,10.89c0,.38-8.15.83-8.84.88a.64.64,0,0,0-.28.07.59.59,0,0,0-.19.42c-1.3,8.68.61,17.39,4.22,25.31,2.46,5.4,6.31,10.79,12,12.33,19.07,5.11,26.63-36.9,26.42-37.08a67.07,67.07,0,0,0-8.54-1.14c-3.05,0-1.45-19.63-1.16-27.13a4.44,4.44,0,0,0-.27-2.08,5.35,5.35,0,0,0-1.57-1.61,15,15,0,0,1-4.81-8.32,39.1,39.1,0,0,1-.69-9.73c0,1.32-9.24,3.71-10.49,4a47.74,47.74,0,0,1-11.54,1.49c-2.65,0-2.55,0-3,2.69-.31,2.11-.62,4.22-.86,6.35a63.19,63.19,0,0,0-.29,12.75,12,12,0,0,0,1.88,6.06C179.65,104.49,182.91,105.44,186,105.83Z" fill="#fff"></path><path d="M195.92,156.67a13.11,13.11,0,0,1-3.35-.46c-5-1.34-9.17-5.59-12.38-12.61-4-8.85-5.47-17.46-4.26-25.58a1.07,1.07,0,0,1,.41-.76,1,1,0,0,1,.53-.16l.67,0c5.16-.32,7.08-.54,7.7-.67l.22-10.12c-3.85-.56-6.49-1.86-8.05-4a12.4,12.4,0,0,1-2-6.32,61.6,61.6,0,0,1,.29-12.85c.24-2.15.55-4.33.86-6.37l0-.27c.39-2.63.62-2.82,3.39-2.84a47.59,47.59,0,0,0,11.44-1.47c5.4-1.38,9.72-2.92,10.11-3.6a.5.5,0,0,1,.5-.44h0a.5.5,0,0,1,.49.51h0a38.16,38.16,0,0,0,.68,9.6,14.68,14.68,0,0,0,4.63,8l.27.21a3.73,3.73,0,0,1,1.76,3.88c0,1.18-.13,2.67-.21,4.33-.38,7.11-1.07,20.33.67,22.16.11.12.18.12.2.12,1,0,8.36.84,8.86,1.26.77.65-2.87,15.78-7.8,25.25C207.08,152.26,201.81,156.67,195.92,156.67Zm-19-38.6,0,.1c-1.18,7.92.23,16.34,4.18,25,3.07,6.74,7,10.79,11.73,12.05a11.31,11.31,0,0,0,10.09-2.1c10.41-7.77,15.23-30.74,15.67-34.12a78.64,78.64,0,0,0-8-1,1.29,1.29,0,0,1-.93-.43c-1.87-2-1.52-12-.94-22.9.08-1.66.16-3.14.21-4.32a3.92,3.92,0,0,0-.22-1.84,4,4,0,0,0-1.17-1.22l-.27-.22a15.65,15.65,0,0,1-5-8.6,35.91,35.91,0,0,1-.72-8.66c-1.23.74-3.91,1.81-9.84,3.33a48.63,48.63,0,0,1-11.67,1.5c-2.13,0-2.13,0-2.42,2l0,.27c-.31,2-.62,4.2-.86,6.33a61.07,61.07,0,0,0-.29,12.65,11.63,11.63,0,0,0,1.78,5.82c1.44,2,4,3.14,7.81,3.63a.49.49,0,0,1,.44.5l-.23,10.89c0,.6,0,.79-8.64,1.33l-.66,0Z" fill="#231f20"></path><path d="M204.07,94.48a7.71,7.71,0,0,0,5.85-.35,8.57,8.57,0,0,0,4.36-8.39,5.28,5.28,0,0,0-.78-2.48c-.92-1.37-2.41-1.54-3.91-1.26-2.22.41-3,1.52-4.47,3" fill="#fff"></path><path d="M206.57,95.4a8.08,8.08,0,0,1-2.66-.45.51.51,0,0,1-.31-.64.49.49,0,0,1,.64-.3,7.14,7.14,0,0,0,5.46-.33,8,8,0,0,0,4.08-7.89,4.64,4.64,0,0,0-.7-2.25c-.67-1-1.78-1.35-3.4-1.05a6,6,0,0,0-3.63,2.28l-.57.6a.5.5,0,1,1-.71-.7l.56-.59a6.91,6.91,0,0,1,4.17-2.57c2-.38,3.51.12,4.41,1.47a5.61,5.61,0,0,1,.87,2.71,9,9,0,0,1-4.64,8.89A8.19,8.19,0,0,1,206.57,95.4Z" fill="#231f20"></path><path d="M186.34,114s3.85.37,7.73-4,3.28-7.78,3.28-7.78S195,106.15,186,105.82Z" fill="#231f20"></path><path d="M186.58,114.54h-.28a.5.5,0,0,1-.45-.48l-.31-8.21a.51.51,0,0,1,.52-.52c8.51.32,10.84-3.33,10.87-3.37a.49.49,0,0,1,.91.17c0,.15.6,3.67-3.4,8.2C191,114.23,187.58,114.54,186.58,114.54Zm0-8.21.26,7.2c1.07-.06,4-.57,6.88-3.86a11.76,11.76,0,0,0,3.13-6.15C195.47,104.7,192.45,106.45,186.56,106.33Z" fill="#231f20"></path><path d="M189.16,82.61s-4.68,7.73-3.43,9,4.55.23,4.55.23" fill="#fff"></path><path d="M187.78,92.72a3.32,3.32,0,0,1-2.4-.78c-1.39-1.38,1.88-7.16,3.35-9.59a.5.5,0,0,1,.86.52c-2.39,3.94-4,7.85-3.51,8.36.85.85,3.22.37,4.06.12a.48.48,0,0,1,.62.33.5.5,0,0,1-.33.62A9.64,9.64,0,0,1,187.78,92.72Z" fill="#231f20"></path><path d="M187.07,98.8a27.73,27.73,0,0,1-7.13-.9.5.5,0,0,1-.34-.62.51.51,0,0,1,.62-.34c.09,0,9.65,2.7,16.95-1.64a.51.51,0,0,1,.69.18.5.5,0,0,1-.18.68A20.72,20.72,0,0,1,187.07,98.8Z" fill="#231f20"></path><path d="M183.49,83.13a4.11,4.11,0,0,1-2.62-.91.5.5,0,0,1,0-.71.49.49,0,0,1,.7,0c.07.06,1.71,1.46,4.24-.06a.5.5,0,0,1,.69.17.51.51,0,0,1-.17.69A5.41,5.41,0,0,1,183.49,83.13Z" fill="#231f20"></path><path d="M195.43,82.74a4,4,0,0,1-2.62-.91.49.49,0,0,1,0-.7.5.5,0,0,1,.71,0c.07.07,1.71,1.46,4.24-.06a.51.51,0,0,1,.69.17.51.51,0,0,1-.18.69A5.38,5.38,0,0,1,195.43,82.74Z" fill="#231f20"></path><path d="M280,206.67c-1.59-7.07-7.41-6.46-21.3-4.39s-50.87,18.46-75.46,24.85c-6.76,4.13-14.26,23.65-9.57,22.71s17.2-9.69,17.2-9.69,52.25-9.08,67.27-11.9S281.63,213.74,280,206.67Z" fill="#fff"></path><path d="M173.39,250.37a1.5,1.5,0,0,1-1.44-1c-1.55-4,5.24-19.09,11.06-22.64a.35.35,0,0,1,.14-.06c11.84-3.07,26.28-8.37,40.24-13.49,14.41-5.3,28-10.29,35.27-11.37,13.39-2,20.11-3,21.86,4.78.65,2.86-.28,6.47-2.54,9.91-4,6.13-11.4,10.71-19.72,12.27-14.52,2.73-64.47,11.41-67.16,11.88-1.24.86-12.72,8.79-17.3,9.71A2,2,0,0,1,173.39,250.37Zm10.08-22.78c-5.65,3.53-11.82,18.24-10.59,21.38a.54.54,0,0,0,.72.38c4.54-.91,16.89-9.53,17-9.61a.67.67,0,0,1,.21-.09c.52-.09,52.42-9.11,67.25-11.89,8.06-1.51,15.19-5.94,19.07-11.84,2.11-3.21,3-6.55,2.41-9.14h0c-1.48-6.53-6.48-6.13-20.75-4-7.13,1.06-20.7,6-35.07,11.31C209.78,219.21,195.35,224.5,183.47,227.59Z" fill="#231f20"></path><path d="M115.5,161.32h-.3a3.88,3.88,0,0,1-3-1.57,2.77,2.77,0,0,1,.22-3.43.51.51,0,0,1,.71,0,.5.5,0,0,1,0,.71,1.76,1.76,0,0,0-.1,2.16,2.87,2.87,0,0,0,2.22,1.13,6.23,6.23,0,0,0,2.72-.57c3.77-1.54,6.68-4.67,9.25-7.42.35-.38.69-.77.67-1.16s-.68-.83-1.24-.83a6.42,6.42,0,0,0-1.31.2,7.94,7.94,0,0,1-1,.2.49.49,0,0,1-.56-.43.5.5,0,0,1,.43-.56c.29,0,.58-.11.87-.18a6.44,6.44,0,0,1,1.55-.23,2.13,2.13,0,0,1,2.23,1.78A2.71,2.71,0,0,1,128,153c-2.5,2.69-5.63,6-9.6,7.66A7.56,7.56,0,0,1,115.5,161.32Z" fill="#231f20"></path><path d="M332.09,209.07H296.16a.5.5,0,0,1,0-1h35.29c-2.22-8.12-10.15-14-18.33-13.45a.49.49,0,0,1-.45-.22.52.52,0,0,1,0-.51c2.43-4.62.37-11.24-4.42-14.15-4.45-2.71-10.85-2.32-15.58.95a.53.53,0,0,1-.52,0,.49.49,0,0,1-.26-.45,11.61,11.61,0,0,0-15.75-11,.5.5,0,0,1-.64-.29.49.49,0,0,1,.29-.64,12.59,12.59,0,0,1,17.07,11c5-3.07,11.3-3.29,15.91-.48,5,3,7.22,9.7,5.14,14.7h.28a19.46,19.46,0,0,1,18.41,14.87.5.5,0,0,1-.1.42A.49.49,0,0,1,332.09,209.07Z" fill="#d1d3d4"></path><path d="M138,129.6a.5.5,0,0,1-.48-.39,79.2,79.2,0,0,0-35.6-49,.5.5,0,1,1,.52-.85A80.18,80.18,0,0,1,138.52,129a.49.49,0,0,1-.37.6Z" fill="#d1d3d4"></path><path d="M128.16,118.39a.46.46,0,0,1-.23-.06A81.18,81.18,0,0,1,87.58,65a.52.52,0,0,1,.11-.43.44.44,0,0,1,.4-.17c4.83.19,9.41,2.34,13.44,4.23,6.84,3.2,13.91,6.52,19.85,11.47,8.82,7.39,15,18.39,17.27,31a.5.5,0,0,1-1,.18c-2.26-12.38-8.28-23.18-16.93-30.41-5.83-4.87-12.84-8.16-19.62-11.34-3.76-1.76-8-3.75-12.4-4.1a80.13,80.13,0,0,0,39.69,52,.49.49,0,0,1,.2.67A.5.5,0,0,1,128.16,118.39Z" fill="#d1d3d4"></path><path d="M256.68,141a.63.63,0,0,1-.22-.05.51.51,0,0,1-.23-.67,152.08,152.08,0,0,1,52.67-60,.5.5,0,1,1,.56.84,151,151,0,0,0-52.33,59.63A.48.48,0,0,1,256.68,141Z" fill="#d1d3d4"></path><path d="M273.27,127.13a.5.5,0,0,1-.21-1,92.66,92.66,0,0,0,48.16-53.62,2.14,2.14,0,0,0,.16-1.44c-.31-.7-1.52-.69-2.21-.63-11.95,1.1-24,7-36.84,18.2s-19.61,21.89-20.95,33.08a.5.5,0,1,1-1-.12c1.36-11.44,8.33-22.47,21.28-33.72s25.24-17.32,37.4-18.44c2.14-.19,2.93.56,3.22,1.23a2.93,2.93,0,0,1-.12,2.16,93.69,93.69,0,0,1-48.69,54.21A.54.54,0,0,1,273.27,127.13Z" fill="#d1d3d4"></path><path d="M250.55,136.9l-.18,0a.5.5,0,0,1-.29-.65c1.51-3.86,1.8-8.1,1.88-12.11a128.6,128.6,0,0,0-19.45-70.45.5.5,0,0,1,.85-.53,129.66,129.66,0,0,1,19.6,71c-.09,4.1-.38,8.45-1.94,12.45A.51.51,0,0,1,250.55,136.9Z" fill="#d1d3d4"></path><path d="M246.09,117.57a.52.52,0,0,1-.35-.14c-20.53-19.44-27.92-51.51-18-78a.49.49,0,0,1,.31-.3.48.48,0,0,1,.42.05c23.33,14.59,36,43.65,30.82,70.67a.51.51,0,0,1-.59.4.51.51,0,0,1-.4-.59c5.08-26.42-7.18-54.83-29.84-69.3-9.49,26-2.16,57.29,17.94,76.33a.49.49,0,0,1,0,.7A.48.48,0,0,1,246.09,117.57Z" fill="#d1d3d4"></path><path d="M149,115.54h-.09a.51.51,0,0,1-.41-.58,93.1,93.1,0,0,1,8.74-26.49,17.24,17.24,0,0,1,1.95-3.17.51.51,0,0,1,.71-.06.49.49,0,0,1,.06.7,15.83,15.83,0,0,0-1.82,3,91.71,91.71,0,0,0-8.65,26.2A.49.49,0,0,1,149,115.54Z" fill="#d1d3d4"></path><path d="M156.6,107.21a.49.49,0,0,1-.36-.15.5.5,0,0,1,0-.71,29.44,29.44,0,0,0,6.67-31.73c-.1-.26-.16-.3-.17-.31s-.08,0-.38.16a20.09,20.09,0,0,0-3.24,2.66c-4.61,4.43-7.55,8.42-9.26,12.54-2.17,5.24-2.2,10.72-.08,15a.5.5,0,1,1-.89.44c-2.25-4.56-2.23-10.33.05-15.84,1.76-4.26,4.78-8.35,9.49-12.88a20.65,20.65,0,0,1,3.41-2.8,1.44,1.44,0,0,1,1.28-.22,1.38,1.38,0,0,1,.71.84,30.47,30.47,0,0,1-6.91,32.85A.48.48,0,0,1,156.6,107.21Z" fill="#d1d3d4"></path></g></svg>