<svg id="Layer_1" data-name="Layer 1" xmlns="http://www.w3.org/2000/svg" xmlns:xlink="http://www.w3.org/1999/xlink" viewBox="0 0 400 300" width="406" height="306" class="illustration styles_illustrationTablet__1DWOa"><defs><linearGradient id="linear-gradient" x1="80.7" y1="181.98" x2="94.7" y2="162.06" gradientUnits="userSpaceOnUse"><stop offset="0" stop-color="#fff" stop-opacity="0"></stop><stop offset="1" stop-color="#d43500"></stop></linearGradient><linearGradient id="linear-gradient-2" x1="157.99" y1="197.83" x2="169.33" y2="181.69" gradientUnits="userSpaceOnUse"><stop offset="0" stop-opacity="0"></stop><stop offset="1" stop-color="#a24700"></stop></linearGradient><linearGradient id="linear-gradient-3" x1="287.71" y1="215.24" x2="301.71" y2="195.33" xlink:href="#linear-gradient"></linearGradient></defs><title>-</title><path d="M31.75,191.76l159.09,92.62a4.49,4.49,0,0,0,4.51,0L349,195.69a4.49,4.49,0,0,0,0-7.78L187.53,94.69a4.49,4.49,0,0,0-4.53,0L31.73,184A4.49,4.49,0,0,0,31.75,191.76Z" fill="#ffb3a9"></path><polyline points="124.28 160.9 76.32 188.48 56.62 175.31 99.85 151.69" opacity="0.32" fill="url(#linear-gradient)"></polyline><path d="M93,204.34l61.3,33.9a11.38,11.38,0,0,0,11.2-.1l115-66.39a5.61,5.61,0,0,0-.09-9.76L221,129.19a7.6,7.6,0,0,0-7.47.07L93,198.87A3.14,3.14,0,0,0,93,204.34Z" fill="#213338"></path><polyline points="194 181.25 166.84 204.34 137.78 191.94 185.92 178.5" opacity="0.32" fill="url(#linear-gradient-2)"></polyline><path d="M181.16,78.67s-7.87-21.91-6.69-26.45,11.33-8.43,11.33-8.43a3.5,3.5,0,0,1,.73,4.35l-5.88,6.08s7.69,17.5,7.33,21.08S181.16,78.67,181.16,78.67Z" fill="#ffac99"></path><path d="M186.29,45s-.76-2.07,0-6,2.72-7.1,4-6.34,2,8.2,2,8.2-2,6.1-3.88,6.35S186.29,45,186.29,45Z" fill="#ffac99"></path><path d="M187.07,172.24s.45,3.93-1.15,6.26-10,7.12-9.07,8.54,6.15,2.22,8.19,1.51,2.4-3.55,4.61-4.61,4.52-2,5.06-4a26.45,26.45,0,0,0-.8-4.44c-.62-2.22,0-9.32,0-9.32S187.32,168.15,187.07,172.24Z" fill="#ffac99"></path><path d="M181.16,102.68c-.4-.22-17.8-7.47-22.84-5.36s-5.82,10.1,1.78,14.42,23.81,14.4,23.81,14.4,2.51,18.85,2.64,20.56.52,25.54.52,25.54,1.7,2.1,7.07,0c0,0,4.27-21.35,3-26.71a28.65,28.65,0,0,1,.22-14.74c2.73-9.12,3.75-19.77-1.46-27" fill="#bcd13d"></path><path d="M192.18,73.8a9.11,9.11,0,0,0-6.84-1.91,39.83,39.83,0,0,0-4.74,5.28.93.93,0,0,1-.13.33c-2.64,4-1.93,8.68-1.34,13.17s1.43,9,2.26,13.46a3.45,3.45,0,0,0,.91,1.31c1.85,1.2,7.83,2.19,13.66-1.65,0,0-.57-9.37.85-14.72S195.53,76.4,192.18,73.8Z" fill="#ffac99"></path><path d="M183.91,126.15,182.32,116s-16.35-10.56-15.44-9.8S182,117.28,182,117.28Z" fill="#99a525"></path><path d="M189.44,49.46A11.77,11.77,0,0,1,188,45c0-1.93.92-7.55,1.45-8.54s1.31-1.28,1.71-.79,1.38,6.19,1.48,7.43,0,5.39,0,5.39" fill="#ffac99"></path><path d="M188.43,47.16l-3.17,2.3s-2-3.42-1.65-4.51l3-1.89" fill="#ffac99"></path><path d="M192.18,73.8l-5.08-1.91s-5.15,5.32-7.56,7.34c-1.91,4.2-1,7.78-.33,12.11,1.16.51,2.83,1,3.19,1.09a39,39,0,0,0,8.25,2.2c.95.14,5.22.07,5.42-1.17l.72-4.4Z" fill="#285687"></path><path d="M183.51,64.8c-.08.24-.26,7.78,2.3,8.49s6.92-1.07,8.05-3.46-.48-10-4.53-10.44S184.24,62.6,183.51,64.8Z" fill="#ffac99"></path><path d="M183.51,64.8a2.92,2.92,0,0,1-1.56-3,6.06,6.06,0,0,1,6-5.58c3.89-.05,9.68,2.76,8.81,9.1s-4.87,6.57-4.87,6.57.92-3.76.54-5.49-.81-3.47-.81-3.3.11,2.33.11,2.33a17.47,17.47,0,0,1-2.92,0c-.12-.16-.86-2.6-.86-2.6v2.6Z" fill="#3129a3"></path><path d="M192.16,67.25s.58-3.27,1.64-2.59.81,3.3-1.31,4" fill="#ffac99"></path><path d="M199.45,94.88a4.36,4.36,0,0,0,1.63,2.6,4,4,0,0,0,6.13-2c-.25-8.4-6.91-25.14-7.55-26l-5.79.4c2.8,3.8,4.11,8.53,4.79,13.14a61.21,61.21,0,0,1,.57,6.81A25.64,25.64,0,0,0,199.45,94.88Z" fill="#3129a3"></path><path d="M196.16,63.79s-5.29-7.89-6.72-14.33.7-4.81,2.74-2.27,10.59,11.2,11.2,14.76c.39,2.27-4.62,18.76-6.58,25.86-4,.81-4.95-9.21-4.91-13.81A36.35,36.35,0,0,0,196.16,63.79Z" fill="#ffac99"></path><polyline points="96.19 138.8 96.19 156.92 125.51 156.92 125.51 138.8" fill="#f8997c"></polyline><ellipse cx="110.85" cy="138.8" rx="14.66" ry="7.21" fill="#dd654a"></ellipse><ellipse cx="110.85" cy="157.62" rx="14.66" ry="7.21" fill="#f8997c"></ellipse><path d="M127.26,96.67c-3.09-1.26-7.38-5.48-11.12-5.35-1.42,3.49-1.84,7.58-2.27,11.12a100.92,100.92,0,0,0-.42,18.56q.13,2.07.34,4.12a3.29,3.29,0,0,0,.33,1.16q0,7.17,0,14.34a.46.46,0,0,0,.91,0q0-6.9,0-13.8a20.34,20.34,0,0,0,4.2-1.94,14.28,14.28,0,0,0,5.91-7.42c2.37-6.59.87-13.94,3.12-20.46C127.92,96.92,127.59,96.81,127.26,96.67Z" fill="#297600"></path><path d="M120.92,85.88a11.49,11.49,0,0,0-4.19,4.28,7.18,7.18,0,0,0-.66,1.27l-.13.28h0a19.16,19.16,0,0,0-.7,2.27,2.83,2.83,0,0,1,1.56-1.23,3.88,3.88,0,0,1,2.45-.23,10.25,10.25,0,0,1,2.24,1.2c1,.63,2.05,1.34,3.09,2,4.86,3.09,11.32,3.4,15.07-1.09,0-.18.09-.36.13-.54C140.33,91,131.66,79.64,120.92,85.88Z" fill="#5fad00"></path><path d="M137.5,96.54c.2-.14.4-.27.61-.4a.42.42,0,0,0-.12-.35c-2.94-3-6.09-6-10.1-7.46a17.3,17.3,0,0,0-9-.89c-.33.38-.62.78-.92,1.18,3.27-1.09,7.4-.41,10.37.86,3.55,1.51,6.37,4.22,9,6.95A.44.44,0,0,0,137.5,96.54Z" fill="#297600"></path><path d="M88.3,103.11a12.24,12.24,0,0,0-6.55,11.74c.35,8.65,14.6.2,18.38-7.09s4.38,3.11,4.38,3.11" fill="#297600"></path><path d="M101.12,100.09a25.8,25.8,0,0,0-7.91,1.1,19.19,19.19,0,0,0-4.92,1.92,15.87,15.87,0,0,0,2.85,1.52c1.79.72,3.66,1.62,4.6,3.3a6.57,6.57,0,0,1,.55,1.3c.87,2.84.12,6.3,1.29,9.16s3.56,5.39,6.92,5.59c4,.24,5.85-3.61,6.65-6.95s1.88-7.89.61-11.32C110.29,101.71,104.92,100.27,101.12,100.09Z" fill="#5fad00"></path><path d="M106.41,113.58c-1.68-5.46-5.26-10.62-10.49-13h-.2l-.25.08-.95.24c6.09,2.26,9.92,8.27,11.48,14.4,2,7.85,1.32,16.35,1.34,24.37a.42.42,0,0,0,.84,0C108.18,131.09,109,121.89,106.41,113.58Z" fill="#297600"></path><path d="M305.06,176.53a3.9,3.9,0,0,1-1.63-.35l-.25,1.64,26.42.68v-2Z" fill="#ef8a3f"></path><path d="M303.42,176.24l-.24,1.58,14.59,8.42v-2C312.85,181.82,308.11,179.08,303.42,176.24Z" fill="#ef8a3f"></path><path d="M318.15,62.34a4.21,4.21,0,0,1-2.54-.36L298.87,191.12c1,.62,2.07,1.17,3.1,1.76L318.91,62.26Z" fill="#ef8a3f"></path><path d="M322,62.2a8.43,8.43,0,0,1-1.83,0c-.49,0-1,0-1.47.07L330,194.69a26.84,26.84,0,0,1,2.67-1.13l.44-.23.08,0Z" fill="#ef8a3f"></path><path d="M320.17,62.2a15.19,15.19,0,0,0-2,.14,5,5,0,0,1-.79,0l-1.1,140h0a3.45,3.45,0,0,1,1.77-.14l1,0,.56-.06,1.1-139.89Z" fill="#ef8a3f"></path><path d="M301.91,64.43V93.36s33.28,1,33.28,0V64.43" fill="#ff6753"></path><ellipse cx="318.55" cy="64.38" rx="16.64" ry="7.71" fill="#d64338"></ellipse><ellipse cx="318.55" cy="93.8" rx="16.64" ry="7.71" fill="#ff6753"></ellipse><path d="M278.38,51.48l-.87,47.59a3,3,0,0,1-4.33,2.63L232.74,81.54a4,4,0,0,1-2.19-3.62l.87-47.62a3.24,3.24,0,0,1,4.71-2.83l40.09,20.39A4,4,0,0,1,278.38,51.48Z" fill="#213338"></path><path d="M239.79,46.5S234.54,60.78,241.47,68s18.26,11.43,18.26,11.43S263.11,52,239.79,46.5Z" fill="#fff"></path><path d="M264.38,70.19s-6.24-7.14,0-14A16.48,16.48,0,0,1,264.38,70.19Z" fill="#fff"></path><path d="M261.71,82.63s.13-9.48,9.33-10.41A16.48,16.48,0,0,1,261.71,82.63Z" fill="#fff"></path><path d="M260.19,80.26c-1.14-1.49-2.24-3-3.32-4.54A28.53,28.53,0,0,1,257,72.3a29.84,29.84,0,0,0-.1-3.57c-.05-.64-1.05-.64-1,0a29.39,29.39,0,0,1,.1,3.57c0,.67-.11,1.35-.16,2q-2.53-3.64-4.86-7.41a46.21,46.21,0,0,0-.56-8.36c-.1-.63-1.06-.36-1,.27a44.39,44.39,0,0,1,.53,6.45q-3.88-6.43-7.18-13.21c-.28-.58-1.14-.07-.86.5q1.83,3.76,3.84,7.42L240,58.25a.5.5,0,0,0-.27,1l6.6,2a.48.48,0,0,0,.14,0q3.11,5.55,6.64,10.84c-1.81-.61-3.6-1.28-5.35-2.06-.58-.26-1.09.6-.5.86a65,65,0,0,0,6.77,2.57h0c1.69,2.48,3.42,4.94,5.24,7.33C259.71,81.27,260.58,80.77,260.19,80.26Z" fill="#213338"></path><polyline points="331.29 194.16 283.33 221.75 263.64 208.58 298.87 191.12" opacity="0.32" fill="url(#linear-gradient-3)"></polyline></svg>