<svg id="Layer_1" data-name="Layer 1" xmlns="http://www.w3.org/2000/svg" viewBox="0 0 400 300" width="406" height="306" class="illustration styles_illustrationTablet__1DWOa"><title>#73_meditation_twocolour</title><ellipse cx="202.99" cy="240.72" rx="148.67" ry="25.64" fill="#e6e6e6" opacity="0.45"></ellipse><path d="M222.61,133.62c-.52-12.16,13.59-19.31,23.19-11.82,9.93,7.75,19.56,22.69,19.13,51.47-.89,58.76,46.59,39.8,46.59,39.8l.74,10.72s-59.65,16.92-75.4-35.91c-1.73-5.83-3.79-11.56-6-17.25C227.53,161.79,223.21,147.9,222.61,133.62Z" fill="#f4a28c"></path><path d="M177.1,133.62c.52-12.16-13.59-19.31-23.19-11.82-9.94,7.75-19.56,22.69-19.13,51.47.89,58.76-46.6,39.8-46.6,39.8l-.74,10.72s59.65,16.92,75.4-35.91c1.74-5.83,3.8-11.56,6-17.25C172.17,161.79,176.49,147.9,177.1,133.62Z" fill="#f4a28c"></path><path d="M147.94,144.63a101.12,101.12,0,0,0,11.67,51.89l4.3-12.07Z" opacity="0.08"></path><path d="M202.64,84.73s2.77,7,3,12.06a3.76,3.76,0,0,1-3.61,3.92c-2.58.07-6.08-.57-8-4.12L190,91a6.7,6.7,0,0,1,.77-7.72C193.92,79.13,201.17,80.41,202.64,84.73Z" fill="#f4a28c"></path><polygon points="191.54 92.3 188.26 116.61 201.78 117.46 198.82 99.89 191.54 92.3" fill="#f4a28c"></polygon><path d="M204.16,89.2,207,91.36a1.21,1.21,0,0,1-.18,2l-2.59,1.34Z" fill="#f4a28c"></path><path d="M198.9,100.38A9.14,9.14,0,0,1,194.63,98s-1.21,5.23,5.12,7.42Z" fill="#ce8172" opacity="0.31"></path><path d="M196,92.28s-.89-2.75-2.9-1.91-.75,4.8,2.17,4.33Z" fill="#f4a28c"></path><path d="M204.06,81.22l2,6-9.93,3.12s-1,6.49,2.39,7.89a5.89,5.89,0,0,1-4-2.28,2.35,2.35,0,0,0-3.24-.4l-.13.1s-4.27-4.52-5-10.34S191.8,79,191.8,79,200.7,73.56,204.06,81.22Z" fill="#24285b"></path><path d="M147.94,144.63a21.24,21.24,0,0,1,17.74-29.06c8.2-.76,16.63-1.34,22.9-1.32,17.31.07,44.89-.69,55.22,6.24,3.44,2.31,5.69,7.92,7.16,14.39a72.76,72.76,0,0,1-5.05,46.27L225.1,226.7H175.89l-12-42.25Z" fill="#ffcc00"></path><path d="M191.8,79s-.09-5.57-10.11-5.31-.9,14.35-9.88,26.37c0,0,15.26-2.24,16.55-15.72Z" fill="#24285b"></path><path d="M192.45,78.65s-1.91-1.5-4.84.11-4.59,8-.29,10.57C187.32,89.33,184.19,80.26,192.45,78.65Z" fill="#ffd200"></path><path d="M171.81,115s4.41,18,25.56,18.61c23.3.68,25.22-18.56,25.22-18.56l-10.14-1.63a99.6,99.6,0,0,0-32.91.23Z" fill="#f4a28c"></path><path d="M199.75,226.7s-44.49-27.25-56.28-10.25,64,23.05,64,23.05l2.73-7.84Z" fill="#24285b"></path><path d="M210.21,232.89S226.4,237,223.94,244s-16.13-4.25-16.13-4.25Z" fill="#f4a28c"></path><path d="M201.55,226.7s44.5-27.25,56.28-10.25-64,23.05-64,23.05l-2.74-7.84Z" fill="#24285b"></path><path d="M191.1,232.89S174.91,237,177.37,244s16.13-4.25,16.13-4.25Z" fill="#f4a28c"></path><path d="M88.18,213.07S86,206.45,82,206.45s0,6.62,0,6.62a5,5,0,0,0-5.67-2.2c-4,.92-7.5,12.58,11.08,12.92Z" fill="#f4a28c"></path><rect x="86.96" y="211.4" width="7.51" height="14.49" transform="translate(33.66 -11.09) rotate(8.59)" fill="#ffd200"></rect><path d="M308.76,213.77s2.16-6.62,6.16-6.62,0,6.62,0,6.62a5,5,0,0,1,5.67-2.2c4,.91,7.5,12.58-11.08,12.91Z" fill="#f4a28c"></path><rect x="302.48" y="212.1" width="7.51" height="14.49" transform="translate(641.78 390.51) rotate(171.41)" fill="#ffd200"></rect><path d="M248.34,175.17a76.63,76.63,0,0,1-48.8,9.16s5.36,3.38,11.67,6.88A11.39,11.39,0,0,1,215,207.73l-13.42,19,29.71-13.5S246.61,180.66,248.34,175.17Z" opacity="0.08"></path><rect x="186.82" y="109.58" width="15.43" height="3.38" fill="#ffcc00"></rect><rect x="186.82" y="109.58" width="15.43" height="3.38" fill="#fff" opacity="0.46"></rect><path d="M83.69,175.89V156.67A116.29,116.29,0,0,1,200,40.39h0A116.29,116.29,0,0,1,316.27,156.67v19.22" fill="none" stroke="#c9c9c9" stroke-linecap="round" stroke-linejoin="round" stroke-width="3" stroke-dasharray="3 12" opacity="0.45"></path><circle cx="88.18" cy="124.05" r="12.43" fill="#ffd200"></circle><circle cx="201.78" cy="36.68" r="12.43" fill="#ffd200"></circle><circle cx="312.26" cy="127.29" r="12.43" fill="#ffd200"></circle><circle cx="126.54" cy="68.6" r="9.1" fill="#24285b"></circle><circle cx="276.53" cy="69.82" r="9.1" fill="#24285b"></circle></svg>