<svg width="65" height="24" viewBox="0 0 65 24" fill="none" xmlns="http://www.w3.org/2000/svg">
<path d="M6.27 15.01L0.03 1H4.17L8.01 10.66L11.91 1H16.05L6.66 23.26H2.94L6.27 15.01ZM23.441 16.3C21.861 16.3 20.491 15.95 19.331 15.25C18.171 14.55 17.281 13.61 16.661 12.43C16.041 11.25 15.731 9.95 15.731 8.53C15.731 7.11 16.041 5.8 16.661 4.6C17.281 3.4 18.171 2.45 19.331 1.75C20.491 1.05 21.861 0.699998 23.441 0.699998C25.021 0.699998 26.391 1.05 27.551 1.75C28.711 2.45 29.601 3.4 30.221 4.6C30.841 5.8 31.151 7.11 31.151 8.53C31.151 9.95 30.841 11.25 30.221 12.43C29.601 13.61 28.711 14.55 27.551 15.25C26.391 15.95 25.021 16.3 23.441 16.3ZM23.441 13.24C24.661 13.24 25.611 12.81 26.291 11.95C26.991 11.09 27.341 9.95 27.341 8.53C27.341 7.09 26.991 5.94 26.291 5.08C25.611 4.2 24.661 3.76 23.441 3.76C22.221 3.76 21.261 4.2 20.561 5.08C19.881 5.94 19.541 7.09 19.541 8.53C19.541 9.95 19.881 11.09 20.561 11.95C21.261 12.81 22.221 13.24 23.441 13.24ZM38.7804 23.56C36.6604 23.56 34.9704 23.17 33.7104 22.39C32.4504 21.63 31.8204 20.59 31.8204 19.27C31.8204 17.83 32.6304 16.65 34.2504 15.73C33.3704 15.19 32.9304 14.48 32.9304 13.6C32.9304 13.14 33.0604 12.73 33.3204 12.37C33.6004 12.01 33.9704 11.72 34.4304 11.5C33.6704 10.96 33.0904 10.27 32.6904 9.43C32.3104 8.59 32.1204 7.67 32.1204 6.67C32.1204 5.57 32.3604 4.57 32.8404 3.67C33.3204 2.75 34.0204 2.03 34.9404 1.51C35.8604 0.969999 36.9504 0.699998 38.2104 0.699998C39.5304 0.699998 40.6704 1.02 41.6304 1.66C41.9704 1.48 42.4204 1.33 42.9804 1.21C43.5604 1.07 44.1804 1 44.8404 1H45.8004L45.5604 3.34H44.2104C43.8704 3.34 43.5904 3.35 43.3704 3.37C43.9704 4.29 44.2704 5.39 44.2704 6.67C44.2704 7.77 44.0304 8.78 43.5504 9.7C43.0904 10.6 42.4004 11.32 41.4804 11.86C40.5604 12.38 39.4704 12.64 38.2104 12.64C37.7504 12.64 37.2204 12.57 36.6204 12.43C36.4004 12.53 36.2904 12.69 36.2904 12.91C36.2904 13.17 36.4404 13.38 36.7404 13.54C37.0604 13.68 37.5904 13.8 38.3304 13.9L40.9104 14.23C44.3504 14.69 46.0704 16.14 46.0704 18.58C46.0704 20.1 45.4204 21.31 44.1204 22.21C42.8404 23.11 41.0604 23.56 38.7804 23.56ZM38.2104 9.88C39.0704 9.88 39.7304 9.6 40.1904 9.04C40.6704 8.46 40.9104 7.67 40.9104 6.67C40.9104 5.67 40.6704 4.89 40.1904 4.33C39.7304 3.75 39.0704 3.46 38.2104 3.46C37.3304 3.46 36.6504 3.75 36.1704 4.33C35.7104 4.89 35.4804 5.67 35.4804 6.67C35.4804 7.67 35.7104 8.46 36.1704 9.04C36.6504 9.6 37.3304 9.88 38.2104 9.88ZM38.9304 20.74C41.4904 20.74 42.7704 20.11 42.7704 18.85C42.7704 18.29 42.5504 17.87 42.1104 17.59C41.6704 17.33 40.9404 17.12 39.9204 16.96L36.6204 16.48C35.4804 16.94 34.9104 17.64 34.9104 18.58C34.9104 19.3 35.2604 19.84 35.9604 20.2C36.6604 20.56 37.6504 20.74 38.9304 20.74ZM50.2097 16.3C48.9697 16.3 47.9297 15.9 47.0897 15.1C46.2697 14.28 45.8597 13.18 45.8597 11.8C45.8597 10.5 46.3297 9.46 47.2697 8.68C48.2097 7.88 49.3197 7.32 50.5997 7C51.8797 6.66 53.1097 6.47 54.2897 6.43C54.2497 5.55 54.0197 4.92 53.5997 4.54C53.1997 4.16 52.5297 3.97 51.5897 3.97C50.9297 3.97 50.2797 4.06 49.6397 4.24C49.0197 4.42 48.2997 4.71 47.4797 5.11L47.1497 2.08C48.9697 1.2 50.7897 0.76 52.6097 0.76C54.3697 0.76 55.7097 1.24 56.6297 2.2C57.5697 3.16 58.0397 4.69 58.0397 6.79V10.84C58.0397 11.6 58.0697 12.15 58.1297 12.49C58.2097 12.81 58.3297 13.02 58.4897 13.12C58.6697 13.2 58.9597 13.24 59.3597 13.24H59.8397L59.5097 16.3H58.1597C57.3397 16.3 56.6497 16.15 56.0897 15.85C55.5297 15.53 55.0997 15.1 54.7997 14.56C54.3197 15.1 53.6597 15.53 52.8197 15.85C51.9997 16.15 51.1297 16.3 50.2097 16.3ZM51.7697 13.45C52.1497 13.45 52.5797 13.36 53.0597 13.18C53.5397 12.98 53.9597 12.71 54.3197 12.37V8.95C53.1197 9.01 52.0597 9.27 51.1397 9.73C50.2197 10.19 49.7597 10.83 49.7597 11.65C49.7597 12.27 49.9197 12.73 50.2397 13.03C50.5597 13.31 51.0697 13.45 51.7697 13.45Z" fill="#FFCC00"/>
<path d="M60.6511 11.92H64.5511V16H60.6511V11.92Z" fill="#213338"/>
</svg>
